<svg width="204" height="42" viewBox="0 0 204 42" fill="none" xmlns="http://www.w3.org/2000/svg" role="img" aria-label="bradesco">
  <g fill="#FFFFFF">
    <path d="M17.8 6C13.1 6 9.3 9.8 9.3 14.5v2.1h3.3v-2.1c0-2.9 2.3-5.2 5.2-5.2s5.2 2.3 5.2 5.2v1.9c0 3.2-2 4.9-5.2 5.9l-3.6 1.2c-3.8 1.2-6.5 4.2-6.5 8.3v1.6H11v-1.6c0-2.6 1.5-4.3 4.1-5.2l3.6-1.2c5.1-1.6 7.6-4.8 7.6-8.9v-2c0-4.7-3.8-8.5-8.5-8.5Z"/>
    <path d="M6.2 20.2H2.9v13.2h3.3V20.2Z"/>
  </g>
  <text x="34" y="28" fill="#FFFFFF" font-family="Sora,Segoe UI,sans-serif" font-size="25" font-weight="700" letter-spacing="0.6">bradesco</text>
</svg>
